IKResults
version=1
nRows=13
nColumns=40
inDegrees=yes

Units are S.I. units (second, meters, Newtons, ...)
Angles are in degrees.

endheader
time	pelvis_tilt	pelvis_list	pelvis_rotation	pelvis_tx	pelvis_ty	pelvis_tz	hip_flexion_r	hip_adduction_r	hip_rotation_r	knee_angle_r	knee_angle_r_beta	ankle_angle_r	subtalar_angle_r	mtp_angle_r	hip_flexion_l	hip_adduction_l	hip_rotation_l	knee_angle_l	knee_angle_l_beta	ankle_angle_l	subtalar_angle_l	mtp_angle_l	lumbar_extension	lumbar_bending	lumbar_rotation	arm_flex_r	arm_add_r	arm_rot_r	elbow_flex_r	pro_sup_r	wrist_flex_r	wrist_dev_r	arm_flex_l	arm_add_l	arm_rot_l	elbow_flex_l	pro_sup_l	wrist_flex_l	wrist_dev_l
      0.58000000	     16.34876883	     -1.41434052	      4.23819034	     -0.64618541	      0.95774334	      1.46071105	    -15.76647065	      4.58172644	    -13.18754364	    -14.33091574	     -0.25012166	      9.26864099	     -3.95970648	     -5.56002822	     -0.48752634	      0.82608674	     -1.24937193	    -53.56178890	     -0.93482957	      8.50837511	     16.57701652	      9.59198140	    -24.54993428	      0.63070873	     -0.82606944	     -0.69720682	    -11.61194958	     -5.48855824	     36.20521989	     89.95437384	      0.00000000	      0.00000000	      0.22234277	      8.69063956	     11.90981107	     18.29811729	     89.95437384	      0.00000000	      0.00000000
      0.59000000	     16.14974825	     -1.17579920	      4.19744667	     -0.63791520	      0.95733227	      1.46168216	    -16.20058343	      4.43711020	    -13.15391617	    -14.23264312	     -0.24840648	      9.76091750	     -3.91618249	     -5.57839875	      0.73954444	      0.64998549	     -0.93751778	    -52.25557498	     -0.91203184	      8.93801774	     16.45177352	      8.97923473	    -24.38667532	      0.20895785	     -0.65842991	     -0.76767608	    -11.72385071	     -5.74613754	     37.88724559	     89.95437384	      0.00000000	      0.00000000	     -0.40435470	      8.81997082	     11.86664610	     18.29910722	     89.95437384	      0.00000000	      0.00000000
      0.60000000	     16.10446247	     -0.78404966	      4.10649561	     -0.62962019	      0.95710419	      1.46255038	    -16.82127419	      4.12350470	    -12.95854136	    -14.08922004	     -0.24590328	     10.11908930	     -3.79769257	     -5.59402868	      1.64094931	      0.38087693	     -0.30154903	    -50.58254542	     -0.88283196	      9.23985228	     16.32923453	      8.34277409	    -24.43335841	     -0.36049627	     -0.40327638	     -0.94832868	    -11.86491570	     -6.00602413	     39.72210574	     89.95437384	      0.00000000	      0.00000000	     -0.90229632	      8.93586679	     11.72788120	     18.25162022	     89.95437384	      0.00000000	      0.00000000
      0.61000000	     16.02434264	     -0.56312457	      3.85943988	     -0.62082397	      0.95659693	      1.46381116	    -17.40444872	      3.93173128	    -12.86361855	    -13.94160953	     -0.24332699	     10.39638938	     -3.73886132	     -5.59037481	      2.52978391	      0.37820319	      0.64123982	    -48.85916585	     -0.85275331	      9.52247906	     16.32682116	      7.86514477	    -24.31835059	     -0.83658189	     -0.07157505	     -1.01034311	    -11.97373369	     -6.16664962	     41.26370595	     89.95437384	      0.00000000	      0.00000000	     -1.49696530	      9.06479437	     11.79461599	     18.11103788	     89.95437384	      0.00000000	      0.00000000
      0.62000000	     15.63861653	     -0.55011996	      4.06971617	     -0.61223084	      0.95542381	      1.46460403	    -17.50244361	      4.06286514	    -13.05581075	    -14.07403148	     -0.24563819	     10.57072193	     -3.78154869	     -5.52153937	      3.93382996	      0.63499196	      1.41055868	    -47.29486558	     -0.82545112	      9.52747123	     16.12872828	      7.72211820	    -23.87580418	     -0.97270319	     -0.19611631	     -0.83320673	    -12.04653678	     -6.18280773	     42.32295846	     89.95437384	      0.00000000	      0.00000000	     -2.16483955	      9.22043703	     11.81401158	     18.03008630	     89.95437384	      0.00000000	      0.00000000
      0.63000000	     15.99846171	     -0.08212423	      3.40184678	     -0.60302494	      0.95540371	      1.46598956	    -18.66515559	      3.51335242	    -12.34403863	    -13.82404928	     -0.24127518	     10.94728798	     -3.83136617	     -5.52411780	      3.87122575	      0.41837773	      3.06286120	    -44.71691890	     -0.78045747	      9.60898224	     16.02431255	      7.01752945	    -24.27434639	     -1.77836397	      0.58313094	     -1.14985611	    -12.25583347	     -6.42382428	     44.16321338	     89.95437384	      0.00000000	      0.00000000	     -2.50925576	      9.24289235	     12.05182019	     17.73635285	     89.95437384	      0.00000000	      0.00000000
      0.64000000	     15.54649514	     -0.13791119	      3.65168431	     -0.59442312	      0.95376163	      1.46663566	    -18.69793520	      3.71006715	    -12.58716855	    -13.92382367	     -0.24301657	     11.16572006	     -3.90694752	     -5.45599696	      5.27465071	      0.74457068	      3.99170294	    -42.99357440	     -0.75037943	      9.59375230	     15.76924449	      6.89471017	    -23.79264855	     -1.80443846	      0.41918532	     -0.98749644	    -12.36182159	     -6.37609082	     45.21673638	     89.95437384	      0.00000000	      0.00000000	     -3.14613711	      9.35847883	     12.03894162	     17.67342076	     89.95437384	      0.00000000	      0.00000000
      0.65000000	     15.72226530	      0.25637780	      2.97708571	     -0.58520369	      0.95312576	      1.46798128	    -19.53670225	      3.16249698	    -12.03249808	    -13.90028664	     -0.24260577	     11.67446159	     -3.96902189	     -5.38879655	      5.34586644	      0.70232326	      6.06227804	    -40.32495567	     -0.70380325	      9.42011880	     14.86901731	      6.29060857	    -23.97802341	     -2.53423755	      1.14627677	     -1.16873537	    -12.66562252	     -6.27812448	     46.73778518	     89.95437384	      0.00000000	      0.00000000	     -3.44101784	      9.36634142	     12.47898947	     17.27574941	     89.95437384	      0.00000000	      0.00000000
      0.66000000	     15.69828409	      0.43728191	      2.80879543	     -0.57608531	      0.95196662	      1.46881312	    -20.14386844	      2.98943211	    -11.85083737	    -13.89459756	     -0.24250648	     11.85912034	     -4.01459860	     -5.22416842	      5.81692790	      0.86872616	      7.81901021	    -37.93492642	     -0.66208937	      8.99476783	     13.82131312	      5.49723579	    -23.92573798	     -2.89188539	      1.31398265	     -1.07014611	    -12.81787002	     -6.22540939	     47.76670434	     89.95437384	      0.00000000	      0.00000000	     -3.92750785	      9.36692880	     12.99060151	     17.08798380	     89.95437384	      0.00000000	      0.00000000
      0.67000000	     15.30139056	      0.44734539	      2.87894013	     -0.56718925	      0.95001431	      1.46938891	    -20.23681849	      3.03339835	    -11.87065151	    -14.06674879	     -0.24551108	     12.19049646	     -4.04520609	     -5.12258719	      6.77755068	      1.07181332	      9.08190118	    -35.58174873	     -0.62101867	      8.61006020	     12.83493367	      5.11668989	    -23.50235871	     -2.99901192	      1.31603132	     -0.99831497	    -12.97866294	     -6.10355953	     48.74551217	     89.95437384	      0.00000000	      0.00000000	     -4.42373016	      9.41856152	     13.20194142	     16.90171062	     89.95437384	      0.00000000	      0.00000000
      0.68000000	     15.52782349	      0.65154300	      2.45563600	     -0.55777323	      0.94905916	      1.47038660	    -21.16093485	      2.71725829	    -11.68703875	    -14.01353572	     -0.24458234	     12.60343436	     -3.65930706	     -4.78040316	      6.72512811	      1.30660094	     11.58981044	    -32.94301892	     -0.57496415	      7.78368711	     10.76388815	      3.62788577	    -23.70566826	     -3.43446121	      1.66539985	     -0.82572334	    -13.17470088	     -5.91720510	     49.55889939	     89.95437384	      0.00000000	      0.00000000	     -4.76907211	      9.34351474	     14.08280682	     16.58283238	     89.95437384	      0.00000000	      0.00000000
      0.69000000	     15.41684813	      0.66889165	      2.21657444	     -0.54872315	      0.94739367	      1.47123195	    -21.58715572	      2.68855684	    -11.22781805	    -14.20526756	     -0.24792869	     13.20592399	     -3.79289838	     -2.23818922	      7.13746179	      1.65301440	     13.81615638	    -30.37970765	     -0.53022592	      6.66075234	      9.35962392	     -3.74664395	    -23.56731199	     -3.62364545	      1.92168457	     -0.65230505	    -13.31504344	     -5.84891342	     50.27618895	     89.95437384	      0.00000000	      0.00000000	     -5.10744768	      9.31536240	     14.44680548	     16.27037188	     89.95437384	      0.00000000	      0.00000000
      0.70000000	     14.94680299	      0.53189632	      2.39655562	     -0.53976071	      0.94500154	      1.47145320	    -21.58986974	      2.90215974	    -11.40739548	    -14.38437533	     -0.25105471	     13.49197059	     -3.88287593	     -2.23645017	      8.05959850	      1.82037797	     14.83869453	    -28.08001884	     -0.49008878	      6.30235496	      8.50820716	     -3.73299136	    -23.07329293	     -3.51175245	      1.86979677	     -0.51438782	    -13.43965636	     -5.81169719	     50.86744550	     89.95437384	      0.00000000	      0.00000000	     -5.52362843	      9.30838754	     14.56183425	     16.12760403	     89.95437384	      0.00000000	      0.00000000
